<svg preserveAspectRatio="none" overflow="visible" style="display: block;" width="20.6349" height="19.8413" viewBox="0 0 20.6349 19.8413" fill="none" xmlns="http://www.w3.org/2000/svg">
<g id="&#236;&#185;&#180;&#235;&#169;&#148;&#235;&#157;&#188;" clip-path="url(#clip0_0_26)">
<path id="Vector" d="M1.98413 3.96825H5.15873L7.14286 1.19048H13.8889L15.873 3.96825H18.6508C19.709 3.96825 20.2381 4.62963 20.2381 5.95238V17.0635C20.2381 18.3862 19.5767 19.0476 18.254 19.0476H2.38095C1.0582 19.0476 0.396825 18.3862 0.396825 17.0635V5.95238C0.396825 4.62963 0.925926 3.96825 1.98413 3.96825Z" fill="#B8BABB"/>
<path id="Vector_2" d="M10.3175 15.4762C12.7282 15.4762 14.6825 13.5219 14.6825 11.1111C14.6825 8.70034 12.7282 6.74603 10.3175 6.74603C7.90669 6.74603 5.95238 8.70034 5.95238 11.1111C5.95238 13.5219 7.90669 15.4762 10.3175 15.4762Z" stroke="white" stroke-width="1.19048"/>
</g>
<defs>
<clipPath id="clip0_0_26">
<rect width="20.6349" height="19.8413" fill="white"/>
</clipPath>
</defs>
</svg>
